<svg width="44" height="44" viewBox="0 0 44 44" fill="none" xmlns="http://www.w3.org/2000/svg">
<rect width="44" height="44" rx="8" fill="white"/>
<path d="M33.1412 22.2608C33.1412 21.4882 33.0785 20.7113 32.9449 19.9512H22.2235V24.3283H28.3631C28.1084 25.74 27.2897 26.9888 26.0911 27.7823V30.6224H29.7539C31.9049 28.6427 33.1412 25.7191 33.1412 22.2608Z" fill="#4285F4"/>
<path d="M22.2235 33.3663C25.2891 33.3663 27.8744 32.3597 29.7581 30.6223L26.0952 27.7822C25.0761 28.4755 23.7604 28.8681 22.2276 28.8681C19.2622 28.8681 16.7479 26.8675 15.8458 24.1777H12.0659V27.1055C13.9955 30.9439 17.9257 33.3663 22.2235 33.3663V33.3663Z" fill="#34A853"/>
<path d="M15.8416 24.1783C15.3655 22.7666 15.3655 21.2379 15.8416 19.8262V16.8984H12.0659C10.4538 20.1103 10.4538 23.8943 12.0659 27.1061L15.8416 24.1783V24.1783Z" fill="#FBBC04"/>
<path d="M22.2235 15.1318C23.844 15.1067 25.4102 15.7165 26.5838 16.8359L29.8291 13.5906C27.7742 11.661 25.0468 10.6002 22.2235 10.6336C17.9257 10.6336 13.9955 13.056 12.0659 16.8985L15.8416 19.8263C16.7396 17.1324 19.2581 15.1318 22.2235 15.1318V15.1318Z" fill="#EA4335"/>
</svg>
