<svg width="168" height="23" viewBox="0 0 168 23" fill="none" xmlns="http://www.w3.org/2000/svg">
<path d="M0.216 11.856V11.136H5.928C5.928 13.68 6.24 14.808 8.256 14.832C10.32 14.832 10.632 13.608 10.632 11.712V0.863999H16.344V12.048C16.344 15.384 15.264 18.528 8.64 18.528C3.624 18.528 0.216 17.328 0.216 11.856ZM24.4131 9.072H19.3251C19.8051 5.208 23.4771 4.656 27.4611 4.656C32.1891 4.656 35.7411 5.424 35.7411 9.072V15.648C35.7411 16.752 35.8611 17.256 36.2691 18H31.1811C31.0131 17.616 30.9411 17.16 30.9171 16.8C29.4531 18.192 27.3651 18.528 24.7971 18.528C20.6451 18.528 18.4371 17.184 18.4371 14.472C18.4371 11.52 20.4051 10.464 24.0531 10.224L29.1171 9.888C30.4371 9.792 30.6531 9.504 30.6531 8.832C30.6531 7.92 29.6691 7.44 27.4371 7.44C25.5651 7.44 24.6531 7.968 24.4131 9.072ZM30.7971 12.72V11.928C30.4131 12.048 29.7891 12.168 28.8531 12.288L25.4211 12.696C24.3891 12.816 23.9571 13.224 23.9571 14.016C23.9571 15.024 24.8691 15.6 26.2371 15.6C29.1651 15.6 30.7971 14.496 30.7971 12.72ZM37.9839 13.944H43.8879C43.9599 14.424 44.1519 14.808 44.6079 15.048C45.0639 15.312 45.7599 15.456 46.8639 15.456C47.9919 15.456 49.1919 15.24 49.1919 14.304C49.1919 13.608 48.6879 13.416 47.4399 13.272L42.9039 12.72C39.9279 12.36 38.4159 11.304 38.4159 9.096C38.4159 5.568 41.4399 4.464 46.3119 4.464C49.7679 4.464 54.1359 5.088 54.4239 8.784H48.7119C48.6639 8.232 48.3039 7.872 47.7999 7.68C47.2959 7.464 46.6239 7.392 45.9759 7.392C44.5119 7.392 43.6479 7.728 43.6479 8.616C43.6479 9.024 43.9839 9.384 45.2799 9.528L49.6719 10.008C53.1759 10.392 54.9039 11.472 54.9039 14.016C54.9039 17.088 51.9759 18.528 46.5759 18.528C42.9759 18.528 38.1039 17.88 37.9839 13.944ZM56.8909 18V0.431999H61.9789V6.864H62.0269C62.9149 5.592 64.7869 4.656 67.3549 4.656C70.5469 4.656 72.8749 6.192 72.8749 9.432V18H67.7869V10.968C67.7869 9.312 66.8509 8.496 65.1469 8.496C63.3469 8.496 61.9789 9.48 61.9789 11.616V18H56.8909ZM103.595 5.88H97.1153C96.9473 4.704 96.0113 3.888 93.3953 3.888C91.4753 3.888 90.4193 4.44 90.4193 5.568C90.4193 6.144 90.8273 6.48 91.6913 6.624C93.1313 6.864 97.5233 7.512 99.2033 7.8C102.395 8.352 104.315 9.648 104.315 12.672C104.315 18.48 96.7793 18.528 94.4273 18.528C88.6193 18.528 84.4193 17.496 84.0833 12.72H90.8513C90.9953 14.016 91.7153 14.832 94.6913 14.832C96.1313 14.832 97.6913 14.496 97.6913 13.032C97.6913 12.12 96.9713 11.808 94.9793 11.496L89.2673 10.632C85.7393 10.104 84.3713 8.328 84.3713 5.784C84.3713 3.528 85.7633 0.335999 93.2753 0.335999C99.4913 0.335999 103.235 1.824 103.595 5.88ZM104.859 8.352V4.992H107.523V0.863999H112.611V4.992H115.971V8.352H112.611V13.584C112.611 14.76 112.899 14.928 114.267 14.928C114.891 14.928 115.395 14.904 116.067 14.88V18.048C115.035 18.192 113.691 18.288 112.203 18.288C108.891 18.288 107.523 17.472 107.523 14.664V8.352H104.859ZM126.627 7.824C124.323 7.824 122.883 9.048 122.883 11.496C122.883 13.944 124.323 15.168 126.627 15.168C128.931 15.168 130.371 13.944 130.371 11.496C130.371 9.048 128.931 7.824 126.627 7.824ZM117.507 11.496C117.507 6.888 120.747 4.464 126.627 4.464C132.507 4.464 135.747 6.888 135.747 11.496C135.747 16.104 132.507 18.528 126.627 18.528C120.747 18.528 117.507 16.104 117.507 11.496ZM137.846 18V4.992H142.862V7.56H142.91C143.918 5.832 145.91 4.656 148.214 4.656C148.766 4.656 149.438 4.704 149.942 4.8V9.552C149.294 9.312 148.094 9.12 147.134 9.12C144.23 9.12 142.934 10.608 142.934 12.96V18H137.846ZM151.724 22.56V19.344H152.948C154.724 19.344 155.036 18.864 155.276 18.408L155.852 17.256L149.731 4.992H155.252L158.54 12.72L161.708 4.992H167.084L160.172 19.632C159.236 21.6 158.468 22.704 155.3 22.704C153.956 22.704 152.708 22.632 151.724 22.56Z" fill="black"/>
</svg>
