<svg width="288" height="226" viewBox="0 0 288 226" fill="none" xmlns="http://www.w3.org/2000/svg">
<path d="M67.8018 56.177C129.611 56.177 145.234 49.124 145.234 0.738586C145.234 49.124 165.445 56.177 220.997 56.177C161.273 56.177 145.234 70.1314 145.234 125.304C145.234 65.7706 126.008 56.177 67.8018 56.177Z" fill="black"/>
<path d="M0.87207 100.39V72.1306L1.93626 72.0843C23.7606 71.1354 45.5235 75.0402 65.6566 83.5173C91.8163 94.5319 114.247 112.852 130.265 136.285L145.887 159.139L159.42 138.579C175.795 113.703 199.311 94.3614 226.88 83.0966C244.603 75.8551 263.565 72.1306 282.71 72.1306H287.927V100.39C219.38 95.93 160.939 149.5 159.43 218.174L159.273 225.326H130.27L130.198 220.039C129.248 150.507 70.2684 95.9402 0.87207 100.39Z" fill="black"/>
<path d="M0.87207 159.139V133.855L4.88418 133.485C58.082 128.58 103.269 171.973 100.523 225.326H72.2639C72.2639 186.761 39.3034 155.937 0.87207 159.139Z" fill="black"/>
<path d="M218.766 225.326H190.507C187.378 172.134 232.379 128.66 285.431 133.621L287.927 133.855V159.139C252.822 155.874 221.886 182.09 219.348 217.255L218.766 225.326Z" fill="black"/>
</svg>
