<svg width="24" height="19" viewBox="0 0 24 19" fill="none" xmlns="http://www.w3.org/2000/svg">
<path d="M5.59595 4.63508C10.7636 4.63508 12.0698 4.04539 12.0698 0C12.0698 4.04539 13.7596 4.63508 18.4042 4.63508C13.4109 4.63508 12.0698 5.80177 12.0698 10.4147C12.0698 5.43718 10.4625 4.63508 5.59595 4.63508Z" fill="white"/>
<path d="M0 8.33177V5.96908L0.0889759 5.96521C1.91366 5.88588 3.73321 6.21235 5.41649 6.9211C7.60364 7.842 9.47906 9.37372 10.8182 11.3329L12.1244 13.2437L13.2558 11.5247C14.6249 9.44483 16.591 7.82775 18.896 6.88592C20.3778 6.28048 21.9632 5.96908 23.5638 5.96908H24V8.33177C18.269 7.9589 13.3828 12.4377 13.2567 18.1795L13.2435 18.7774H10.8187L10.8126 18.3353C10.7332 12.5219 5.80207 7.95975 0 8.33177Z" fill="white"/>
<path d="M0 13.2437V11.1297L0.335446 11.0988C4.78319 10.6887 8.5612 14.3167 8.33161 18.7774H5.96891C5.96891 15.5531 3.21315 12.9759 0 13.2437Z" fill="white"/>
<path d="M18.2176 18.7774H15.8549C15.5933 14.3302 19.3558 10.6953 23.7913 11.1102L24 11.1297V13.2437C21.0649 12.9707 18.4785 15.1625 18.2663 18.1026L18.2176 18.7774Z" fill="white"/>
</svg>
