<svg width="34" height="26" viewBox="0 0 34 26" fill="none" xmlns="http://www.w3.org/2000/svg">
<path d="M8.2085 6.363C15.3027 6.363 17.0958 5.55348 17.0958 0C17.0958 5.55348 19.4156 6.363 25.7916 6.363C18.9368 6.363 17.0958 7.96463 17.0958 14.2972C17.0958 7.46412 14.8892 6.363 8.2085 6.363Z" fill="black"/>
<path d="M0.526367 11.4376V8.19415L0.648512 8.18884C3.15342 8.07993 5.65129 8.52811 7.96208 9.50107C10.9646 10.7653 13.5391 12.868 15.3776 15.5575L17.1706 18.1807L18.7239 15.8208C20.6033 12.9656 23.3024 10.7457 26.4667 9.45278C28.5008 8.62163 30.6772 8.19415 32.8746 8.19415H33.4734V11.4376C25.6059 10.9258 18.8982 17.0743 18.725 24.9565L18.707 25.7773H15.3781L15.3698 25.1705C15.2608 17.1898 8.4914 10.9269 0.526367 11.4376Z" fill="black"/>
<path d="M0.526367 18.1807V15.2786L0.986868 15.2362C7.0927 14.6732 12.2791 19.6536 11.9639 25.7773H8.72044C8.72044 21.351 4.93736 17.8131 0.526367 18.1807Z" fill="black"/>
<path d="M25.5354 25.7773H22.2919C21.9328 19.6722 27.0978 14.6823 33.1869 15.2518L33.4734 15.2786V18.1807C29.4442 17.8059 25.8935 20.8148 25.6022 24.8509L25.5354 25.7773Z" fill="black"/>
</svg>
