<svg width="46" height="46" viewBox="0 0 46 46" fill="none" xmlns="http://www.w3.org/2000/svg">
<path d="M37.3463 38.6287L25.3441 26.6265C24.3858 27.443 23.2837 28.0749 22.0378 28.5221C20.792 28.9693 19.5398 29.193 18.2812 29.193C15.212 29.193 12.6142 28.1305 10.488 26.0055C8.36179 23.8806 7.29868 21.2835 7.29868 18.2143C7.29868 15.1451 8.36051 12.5467 10.4842 10.4192C12.6078 8.29171 15.2043 7.22668 18.2735 7.22413C21.3427 7.22157 23.9417 8.28468 26.0705 10.4135C28.1993 12.5422 29.2637 15.1406 29.2637 18.2085C29.2637 19.54 29.0279 20.8286 28.5564 22.0745C28.0849 23.3203 27.4652 24.386 26.6973 25.2715L38.6994 37.2717L37.3463 38.6287ZM18.2831 27.2744C20.8259 27.2744 22.9725 26.3991 24.7231 24.6485C26.4736 22.898 27.3489 20.7507 27.3489 18.2066C27.3489 15.6626 26.4736 13.5159 24.7231 11.7666C22.9725 10.0173 20.8259 9.14207 18.2831 9.14079C15.7403 9.13951 13.593 10.0148 11.8412 11.7666C10.0893 13.5185 9.21406 15.6651 9.21534 18.2066C9.21662 20.7481 10.0919 22.8948 11.8412 24.6466C13.5905 26.3985 15.7371 27.2737 18.2812 27.2725" fill="black"/>
</svg>
